<svg width="35" height="35" viewBox="0 0 35 35" fill="none" xmlns="http://www.w3.org/2000/svg">
<path d="M2 16.8037C2 17.411 2.4906 17.9365 3.27555 17.9365C3.65576 17.9365 3.99918 17.7379 4.30581 17.5044L5.70401 16.3833V27.244C5.70401 28.9723 6.79558 30 8.67212 30H25.2666C27.1308 30 28.2347 28.9723 28.2347 27.244V16.3249L29.7065 17.5044C30.0008 17.7379 30.3442 17.9365 30.7244 17.9365C31.4481 17.9365 32 17.5044 32 16.827C32 16.43 31.8406 16.1147 31.5217 15.8578L28.2347 13.2185V8.24361C28.2347 7.71809 27.879 7.3911 27.3271 7.3911H25.6345C25.0948 7.3911 24.7269 7.71809 24.7269 8.24361V10.4157L18.7539 5.63938C17.6868 4.78687 16.3377 4.78687 15.2706 5.63938L2.4906 15.8578C2.15944 16.1147 2 16.465 2 16.8037ZM20.5323 20.0269C20.5323 19.478 20.1644 19.1276 19.5879 19.1276H14.4366C13.8602 19.1276 13.48 19.478 13.48 20.0269V27.676H9.32216C8.56173 27.676 8.14473 27.2673 8.14473 26.5316V14.433L16.4726 7.77648C16.816 7.4962 17.2085 7.4962 17.5519 7.77648L25.7817 14.363V26.5316C25.7817 27.2673 25.3647 27.676 24.6043 27.676H20.5323V20.0269Z" fill="#757575"/>
</svg>
