<svg width="20" height="20" viewBox="0 0 20 20" fill="none" xmlns="http://www.w3.org/2000/svg">
<g clip-path="url(#clip0_1340_1237)">
<path d="M10 5.75C11.1 5.75 12 4.90625 12 3.875C12 2.84375 11.1 2 10 2C8.9 2 8 2.84375 8 3.875C8 4.90625 8.9 5.75 10 5.75ZM10 7.625C8.9 7.625 8 8.46875 8 9.5C8 10.5312 8.9 11.375 10 11.375C11.1 11.375 12 10.5312 12 9.5C12 8.46875 11.1 7.625 10 7.625ZM10 13.25C8.9 13.25 8 14.0938 8 15.125C8 16.1562 8.9 17 10 17C11.1 17 12 16.1562 12 15.125C12 14.0938 11.1 13.25 10 13.25Z" fill="#616161"/>
</g>
<defs>
<clipPath id="clip0_1340_1237">
<rect width="20" height="20" fill="white"/>
</clipPath>
</defs>
</svg>
