<svg width="26" height="26" viewBox="0 0 26 26" fill="none" xmlns="http://www.w3.org/2000/svg">
<path d="M14.7006 3.12001C14.5748 2.9939 14.4254 2.89384 14.2609 2.82558C14.0964 2.75731 13.92 2.72217 13.7419 2.72217C13.5637 2.72217 13.3874 2.75731 13.2229 2.82558C13.0583 2.89384 12.9089 2.9939 12.7831 3.12001L3.67228 12.2308C3.57185 12.3311 3.49218 12.4501 3.43781 12.5812C3.38345 12.7122 3.35547 12.8527 3.35547 12.9946C3.35547 13.1365 3.38345 13.277 3.43781 13.408C3.49218 13.5391 3.57185 13.6581 3.67228 13.7583L12.7831 22.8692C13.314 23.4 14.1698 23.4 14.7006 22.8692C15.2314 22.3383 15.2314 21.4825 14.7006 20.9517L6.74895 13L14.7114 5.03751C15.2314 4.50667 15.2314 3.65084 14.7006 3.12001Z" fill="#595D63"/>
</svg>
