<svg width="35" height="35" viewBox="0 0 35 35" fill="none" xmlns="http://www.w3.org/2000/svg">
<path d="M25.4843 6.69726C23.234 4.32995 20.1819 3 16.9994 3C13.817 3 10.7649 4.32995 8.51455 6.69726C6.26422 9.06458 5 12.2754 5 15.6232C5 18.9711 6.26422 22.1819 8.51455 24.5492L12.986 29.2532C13.0877 29.3601 13.2084 29.445 13.3413 29.5029C13.4741 29.5608 13.6165 29.5906 13.7603 29.5906C13.9041 29.5906 14.0465 29.5608 14.1794 29.5029C14.3123 29.445 14.433 29.3601 14.5347 29.2532C14.6363 29.1462 14.717 29.0192 14.772 28.8794C14.8271 28.7397 14.8554 28.5899 14.8554 28.4386C14.8554 28.2873 14.8271 28.1375 14.772 27.9977C14.717 27.858 14.6363 27.731 14.5347 27.624L10.0632 22.9201C8.68927 21.4765 7.75323 19.6367 7.37351 17.6333C6.99379 15.63 7.18745 13.5532 7.93 11.6657C8.67255 9.77814 9.9306 8.16473 11.545 7.02956C13.1594 5.89439 15.0576 5.28847 16.9994 5.28847C18.9412 5.28847 20.8394 5.89439 22.4538 7.02956C24.0682 8.16473 25.3263 9.77814 26.0688 11.6657C26.8114 13.5532 27.005 15.63 26.6253 17.6333C26.2456 19.6367 25.3096 21.4765 23.9356 22.9201L16.2251 31.0315C16.1229 31.1381 16.0417 31.265 15.9864 31.4048C15.931 31.5446 15.9025 31.6946 15.9025 31.846C15.9025 31.9975 15.931 32.1475 15.9864 32.2873C16.0417 32.4271 16.1229 32.554 16.2251 32.6606C16.3265 32.7682 16.4471 32.8535 16.58 32.9118C16.7129 32.97 16.8554 33 16.9994 33C17.1434 33 17.2859 32.97 17.4188 32.9118C17.5517 32.8535 17.6724 32.7682 17.7737 32.6606L25.4843 24.5492C26.5989 23.3772 27.483 21.9857 28.0863 20.4542C28.6895 18.9226 29 17.2811 29 15.6232C29 13.9654 28.6895 12.3239 28.0863 10.7923C27.483 9.26075 26.5989 7.86924 25.4843 6.69726Z" fill="#757575"/>
<path d="M22.4524 15.7036C22.4524 14.569 22.1326 13.4599 21.5334 12.5165C20.9342 11.5732 20.0826 10.8379 19.0862 10.4037C18.0898 9.96954 16.9933 9.85594 15.9356 10.0773C14.8778 10.2986 13.9062 10.845 13.1435 11.6472C12.3809 12.4495 11.8616 13.4716 11.6512 14.5844C11.4408 15.6972 11.5487 16.8506 11.9615 17.8988C12.3742 18.947 13.0731 19.8429 13.9699 20.4733C14.8666 21.1036 15.9209 21.44 16.9994 21.44C18.4456 21.44 19.8326 20.8357 20.8552 19.7599C21.8779 18.6841 22.4524 17.225 22.4524 15.7036ZM13.7276 15.7036C13.7276 15.0228 13.9195 14.3574 14.279 13.7913C14.6385 13.2253 15.1495 12.7842 15.7473 12.5237C16.3452 12.2631 17.003 12.195 17.6377 12.3278C18.2724 12.4606 18.8553 12.7884 19.3129 13.2698C19.7705 13.7511 20.0821 14.3644 20.2083 15.0321C20.3346 15.6997 20.2698 16.3918 20.0221 17.0207C19.7745 17.6496 19.3551 18.1872 18.8171 18.5654C18.2791 18.9436 17.6465 19.1454 16.9994 19.1454C16.1317 19.1454 15.2995 18.7828 14.6859 18.1373C14.0723 17.4919 13.7276 16.6164 13.7276 15.7036Z" fill="#757575"/>
</svg>
