<svg width="35" height="35" viewBox="0 0 35 35" fill="none" xmlns="http://www.w3.org/2000/svg">
<path d="M7.88109 31C9.67773 31 13.3098 29.3047 16.05 27.4084C25.1754 27.5716 32 22.4479 32 15.7167C32 9.22419 25.3175 4 16.9935 4C8.66954 4 2 9.22419 2 15.7167C2 19.8484 4.63679 23.5279 8.68246 25.4493C8.12667 26.4665 7.14433 27.8605 6.58854 28.5888C5.76131 29.6563 6.33003 31 7.88109 31ZM9.44507 28.4005C9.27704 28.4633 9.21241 28.3753 9.32874 28.2372C9.98794 27.4586 10.9573 26.2153 11.4356 25.3363C11.8234 24.6456 11.6941 24.0428 10.8669 23.666C6.9246 21.8702 4.63679 18.9944 4.63679 15.7167C4.63679 10.6684 10.1172 6.56186 16.9935 6.56186C23.8699 6.56186 29.3503 10.6684 29.3503 15.7167C29.3503 20.7651 23.8699 24.8842 16.9935 24.8842C16.7609 24.8842 16.399 24.8716 15.9595 24.8716C15.4037 24.8591 14.9901 25.0223 14.4731 25.4116C12.9091 26.5419 10.5954 27.9484 9.44507 28.4005Z" fill="#757575"/>
</svg>
