<svg width="30" height="30" viewBox="0 0 30 30" fill="none" xmlns="http://www.w3.org/2000/svg">
<g clip-path="url(#clip0_310_863)">
<path d="M2.92751 20.6812C2.84553 20.5998 2.74321 20.5418 2.6312 20.5133C2.51918 20.4848 2.40159 20.4869 2.29066 20.5193C2.17972 20.5518 2.07952 20.6133 2.00048 20.6977C1.92143 20.782 1.86645 20.8859 1.84126 20.9987L0.015006 29.215C-0.00843467 29.321 -0.00480428 29.4311 0.0255622 29.5354C0.0559287 29.6396 0.112053 29.7344 0.188756 29.8112C0.266131 29.8871 0.361051 29.9426 0.465074 29.973C0.569097 30.0033 0.678999 30.0074 0.785006 29.985L9.00001 28.16C9.11295 28.1348 9.21704 28.0797 9.30141 28.0005C9.38579 27.9213 9.44735 27.8209 9.47966 27.7097C9.51197 27.5986 9.51386 27.4809 9.48511 27.3688C9.45637 27.2567 9.39805 27.1544 9.31626 27.0725L2.92751 20.6812Z" fill="#FAFAFA"/>
<path d="M22.555 8.81376L8.40498 22.9638C8.34505 23.0246 8.31146 23.1065 8.31146 23.1919C8.31146 23.2773 8.34505 23.3592 8.40498 23.42L10.6875 25.7038C10.8101 25.8222 10.9739 25.8884 11.1444 25.8884C11.3148 25.8884 11.4786 25.8222 11.6012 25.7038L25.2937 12.0088C25.3538 11.9489 25.4015 11.8779 25.434 11.7996C25.4666 11.7213 25.4833 11.6373 25.4833 11.5525C25.4833 11.4677 25.4666 11.3838 25.434 11.3055C25.4015 11.2272 25.3538 11.1561 25.2937 11.0963L23.0125 8.81376C22.9518 8.75316 22.8695 8.71912 22.7837 8.71912C22.698 8.71912 22.6157 8.75316 22.555 8.81376Z" fill="#FAFAFA"/>
<path d="M21.1863 6.98874L18.9038 4.70624C18.7826 4.58548 18.6186 4.51767 18.4475 4.51767C18.2765 4.51767 18.1124 4.58548 17.9913 4.70624L4.29751 18.4C4.23742 18.4598 4.18974 18.5309 4.1572 18.6092C4.12466 18.6875 4.10791 18.7714 4.10791 18.8562C4.10791 18.941 4.12466 19.025 4.1572 19.1033C4.18974 19.1816 4.23742 19.2527 4.29751 19.3125L6.58001 21.595C6.64082 21.6549 6.72276 21.6885 6.80814 21.6885C6.89351 21.6885 6.97546 21.6549 7.03626 21.595L21.1863 7.44498C21.2162 7.41504 21.24 7.37947 21.2562 7.34033C21.2725 7.30119 21.2808 7.25923 21.2808 7.21686C21.2808 7.17449 21.2725 7.13253 21.2562 7.09339C21.24 7.05425 21.2162 7.01869 21.1863 6.98874Z" fill="#FAFAFA"/>
<path d="M28.49 1.51125C27.5207 0.54405 26.2074 0.000854492 24.8381 0.000854492C23.4688 0.000854492 22.1555 0.54405 21.1862 1.51125L20.2725 2.42375C20.1516 2.5451 20.0838 2.70937 20.0838 2.88062C20.0838 3.05187 20.1516 3.21615 20.2725 3.3375L26.6637 9.72625C26.7868 9.84319 26.9502 9.90839 27.12 9.90839C27.2898 9.90839 27.4531 9.84319 27.5762 9.72625L28.49 8.81375C29.4571 7.84472 30.0003 6.53157 30.0003 5.1625C30.0003 3.79343 29.4571 2.48028 28.49 1.51125Z" fill="#FAFAFA"/>
</g>
<defs>
<clipPath id="clip0_310_863">
<rect width="30" height="30" fill="white"/>
</clipPath>
</defs>
</svg>
