<svg width="10" height="10" viewBox="0 0 10 10" fill="none" xmlns="http://www.w3.org/2000/svg">
<path d="M4.45032 5L6.832 7.79821C6.94396 7.92975 6.99994 8.09716 6.99994 8.30045C6.99994 8.50374 6.94396 8.67115 6.832 8.80269C6.72004 8.93423 6.57755 9 6.40452 9C6.23149 9 6.089 8.93423 5.97704 8.80269L3.16788 5.50224C3.10681 5.43049 3.06355 5.35277 3.03811 5.26906C3.01266 5.18535 2.99994 5.09566 2.99994 5C2.99994 4.90433 3.01266 4.81465 3.03811 4.73094C3.06355 4.64723 3.10681 4.56951 3.16788 4.49776L5.97704 1.19731C6.089 1.06577 6.23149 1 6.40452 1C6.57755 1 6.72004 1.06577 6.832 1.19731C6.94396 1.32885 6.99994 1.49626 6.99994 1.69955C6.99994 1.90284 6.94396 2.07025 6.832 2.20179L4.45032 5Z" fill="black"/>
</svg>
