<svg width="35" height="35" viewBox="0 0 35 35" fill="none" xmlns="http://www.w3.org/2000/svg">
<g clip-path="url(#clip0_1154_1209)">
<path d="M28.9999 8H16.9999L14.8849 5.885C14.3149 5.315 13.5499 5 12.7549 5H4.99992C3.34992 5 2.01492 6.35 2.01492 8L1.99992 26C1.99992 27.65 3.34992 29 4.99992 29H28.9999C30.6499 29 31.9999 27.65 31.9999 26V11C31.9999 9.35 30.6499 8 28.9999 8ZM27.4999 26H6.49992C5.67492 26 4.99992 25.325 4.99992 24.5V12.5C4.99992 11.675 5.67492 11 6.49992 11H27.4999C28.3249 11 28.9999 11.675 28.9999 12.5V24.5C28.9999 25.325 28.3249 26 27.4999 26Z" fill="#034A93"/>
</g>
<defs>
<clipPath id="clip0_1154_1209">
<rect width="35" height="35" fill="white"/>
</clipPath>
</defs>
</svg>
