<svg width="25" height="25" viewBox="0 0 25 25" fill="none" xmlns="http://www.w3.org/2000/svg">
<rect width="25" height="25" rx="3" fill="#034A93"/>
<path d="M19.71 8.20998C19.617 8.11625 19.5064 8.04186 19.3846 7.99109C19.2627 7.94032 19.132 7.91418 19 7.91418C18.868 7.91418 18.7373 7.94032 18.6154 7.99109C18.4936 8.04186 18.383 8.11625 18.29 8.20998L10.84 15.67L7.71001 12.53C7.61349 12.4367 7.49955 12.3634 7.37469 12.3142C7.24984 12.265 7.11651 12.2409 6.98233 12.2432C6.84815 12.2455 6.71574 12.2743 6.59266 12.3278C6.46959 12.3812 6.35825 12.4585 6.26501 12.555C6.17177 12.6515 6.09846 12.7654 6.04925 12.8903C6.00005 13.0152 5.97592 13.1485 5.97824 13.2827C5.98056 13.4168 6.00929 13.5493 6.06278 13.6723C6.11628 13.7954 6.19349 13.9067 6.29001 14L10.13 17.84C10.223 17.9337 10.3336 18.0081 10.4554 18.0589C10.5773 18.1096 10.708 18.1358 10.84 18.1358C10.972 18.1358 11.1027 18.1096 11.2246 18.0589C11.3464 18.0081 11.457 17.9337 11.55 17.84L19.71 9.67998C19.8115 9.58634 19.8925 9.47269 19.9479 9.34619C20.0033 9.21969 20.0319 9.08308 20.0319 8.94498C20.0319 8.80688 20.0033 8.67028 19.9479 8.54378C19.8925 8.41728 19.8115 8.30363 19.71 8.20998Z" fill="white"/>
</svg>
