<svg width="25" height="25" viewBox="0 0 25 25" fill="none" xmlns="http://www.w3.org/2000/svg">
<rect x="0.5" y="0.5" width="24" height="24" rx="2.5" fill="#FAFAFA"/>
<path d="M19.7099 8.20998C19.617 8.11625 19.5064 8.04186 19.3845 7.99109C19.2627 7.94032 19.132 7.91418 18.9999 7.91418C18.8679 7.91418 18.7372 7.94032 18.6154 7.99109C18.4935 8.04186 18.3829 8.11625 18.29 8.20998L10.84 15.67L7.70995 12.53C7.61343 12.4367 7.49949 12.3634 7.37463 12.3142C7.24978 12.265 7.11645 12.2409 6.98227 12.2432C6.84809 12.2455 6.71568 12.2743 6.5926 12.3278C6.46953 12.3812 6.35819 12.4585 6.26495 12.555C6.17171 12.6515 6.0984 12.7654 6.04919 12.8903C5.99999 13.0152 5.97586 13.1485 5.97818 13.2827C5.9805 13.4168 6.00923 13.5493 6.06272 13.6723C6.11622 13.7954 6.19343 13.9067 6.28995 14L10.13 17.84C10.2229 17.9337 10.3335 18.0081 10.4554 18.0589C10.5772 18.1096 10.7079 18.1358 10.84 18.1358C10.972 18.1358 11.1027 18.1096 11.2245 18.0589C11.3464 18.0081 11.457 17.9337 11.55 17.84L19.7099 9.67998C19.8115 9.58634 19.8925 9.47269 19.9479 9.34619C20.0033 9.21969 20.0319 9.08308 20.0319 8.94498C20.0319 8.80688 20.0033 8.67028 19.9479 8.54378C19.8925 8.41728 19.8115 8.30363 19.7099 8.20998Z" fill="#BDBDBD"/>
<rect x="0.5" y="0.5" width="24" height="24" rx="2.5" stroke="#BDBDBD"/>
</svg>
