<svg width="35" height="35" viewBox="0 0 35 35" fill="none" xmlns="http://www.w3.org/2000/svg">
<g clip-path="url(#clip0_1154_1213)">
<path d="M28.5454 4.72727H27.1817V3.36364C27.1817 2.61364 26.5681 2 25.8181 2C25.0681 2 24.4545 2.61364 24.4545 3.36364V4.72727H10.8181V3.36364C10.8181 2.61364 10.2045 2 9.45447 2C8.70447 2 8.09083 2.61364 8.09083 3.36364V4.72727H6.7272C5.2272 4.72727 3.99992 5.95455 3.99992 7.45455V29.2727C3.99992 30.7727 5.2272 32 6.7272 32H28.5454C30.0454 32 31.2727 30.7727 31.2727 29.2727V7.45455C31.2727 5.95455 30.0454 4.72727 28.5454 4.72727ZM27.1817 29.2727H8.09083C7.34083 29.2727 6.7272 28.6591 6.7272 27.9091V11.5455H28.5454V27.9091C28.5454 28.6591 27.9317 29.2727 27.1817 29.2727Z" fill="#034A93"/>
</g>
<defs>
<clipPath id="clip0_1154_1213">
<rect width="35" height="35" fill="white"/>
</clipPath>
</defs>
</svg>
