<svg width="10" height="10" viewBox="0 0 10 10" fill="none" xmlns="http://www.w3.org/2000/svg">
<path d="M5.54968 5L3.168 2.20179C3.05604 2.07025 3.00006 1.90284 3.00006 1.69955C3.00006 1.49626 3.05604 1.32885 3.168 1.19731C3.27996 1.06577 3.42245 1 3.59548 1C3.76851 1 3.911 1.06577 4.02296 1.19731L6.83212 4.49776C6.89319 4.56951 6.93645 4.64723 6.96189 4.73094C6.98734 4.81465 7.00006 4.90434 7.00006 5C7.00006 5.09567 6.98734 5.18535 6.96189 5.26906C6.93645 5.35277 6.89319 5.43049 6.83212 5.50224L4.02296 8.80269C3.911 8.93423 3.76851 9 3.59548 9C3.42245 9 3.27996 8.93423 3.168 8.80269C3.05604 8.67115 3.00006 8.50374 3.00006 8.30045C3.00006 8.09716 3.05604 7.92975 3.168 7.79821L5.54968 5Z" fill="#1E1F21"/>
</svg>
