<svg width="35" height="35" viewBox="0 0 35 35" fill="none" xmlns="http://www.w3.org/2000/svg">
<path d="M17.9927 33C26.2141 33 33 26.2108 33 18C33 9.78917 26.1996 3 17.9782 3C9.77139 3 3 9.78917 3 18C3 26.2108 9.78589 33 17.9927 33ZM17.9927 23.0193C13.9038 23.0193 10.7284 24.4845 9.1914 26.1673C7.21943 24.0348 6.01595 21.1625 6.01595 18C6.01595 11.3414 11.3374 6.0029 17.9782 6.0029C24.6336 6.0029 29.984 11.3414 29.9985 18C29.9985 21.1625 28.7951 24.0348 26.8086 26.1818C25.2716 24.4845 22.0962 23.0193 17.9927 23.0193ZM17.9927 20.6402C20.8057 20.6692 22.9952 18.2611 22.9952 15.1567C22.9952 12.2263 20.7912 9.77466 17.9927 9.77466C15.2088 9.77466 12.9903 12.2263 13.0048 15.1567C13.0193 18.2611 15.1943 20.6257 17.9927 20.6402Z" fill="#757575"/>
</svg>
