<svg width="10" height="10" viewBox="0 0 10 10" fill="none" xmlns="http://www.w3.org/2000/svg">
<path d="M9.00001 5.66671H5.66668V9.00004C5.66668 9.36671 5.36668 9.66671 5.00001 9.66671C4.63334 9.66671 4.33334 9.36671 4.33334 9.00004V5.66671H1.00001C0.633344 5.66671 0.333344 5.36671 0.333344 5.00004C0.333344 4.63337 0.633344 4.33337 1.00001 4.33337H4.33334V1.00004C4.33334 0.633374 4.63334 0.333374 5.00001 0.333374C5.36668 0.333374 5.66668 0.633374 5.66668 1.00004V4.33337H9.00001C9.36668 4.33337 9.66668 4.63337 9.66668 5.00004C9.66668 5.36671 9.36668 5.66671 9.00001 5.66671Z" fill="#1E1F21"/>
</svg>
